<svg width="222" height="74" viewBox="0 0 222 74" fill="none" xmlns="http://www.w3.org/2000/svg">
<g clip-path="url(#clip0_3_527)">
<path d="M17.9069 0.907715H22.6911V15.6589H17.9069V13.6655H11.3956V2.90091H17.9069V0.907715ZM37.8238 46.689H53.2975V28.8989C54.6745 29.503 56.0946 30.4181 56.5462 31.6685C57.2502 33.6238 55.481 36.2815 53.8709 38.1659L57.5071 41.2744C61.0472 37.1257 62.2383 33.3474 61.0472 30.0437C59.1533 24.7923 52.1111 23.432 51.3138 23.2932L48.5136 22.8081V22.9219L48.4981 22.8658L45.5437 42.7008L42.6051 22.0714V21.443L26.351 11.2431L23.8096 15.2954L37.8238 24.0889V46.689ZM53.2978 50.7521V48.2823H37.8241V53.6612L43.6548 58.2367L35.0186 73.7433H49.7814V68.9594H43.1598L47.4673 61.2269L52.1735 64.9179V73.7978H56.9577V62.5911L49.822 56.9925L53.2978 50.7521Z" fill="black"/>
</g>
<path d="M68.6849 63.3018V48.4135H73.8803V51.2438H74.0353C74.3067 50.197 74.7365 49.4313 75.3245 48.9466C75.919 48.462 76.6136 48.2197 77.4085 48.2197C77.6411 48.2197 77.8705 48.2391 78.0966 48.2778C78.3293 48.3101 78.5522 48.3586 78.7655 48.4232V52.9886C78.5005 52.8981 78.1742 52.8302 77.7865 52.785C77.3988 52.7398 77.066 52.7172 76.7881 52.7172C76.2647 52.7172 75.793 52.8367 75.373 53.0758C74.9594 53.3084 74.6331 53.638 74.394 54.0645C74.1549 54.4845 74.0353 54.9788 74.0353 55.5475V63.3018H68.6849ZM86.8008 63.5732C85.2112 63.5732 83.8413 63.2694 82.6911 62.662C81.5473 62.0481 80.6653 61.1693 80.0449 60.0256C79.431 58.8754 79.1241 57.499 79.1241 55.8964C79.1241 54.3585 79.4343 53.0144 80.0546 51.8642C80.6749 50.714 81.5505 49.819 82.6814 49.1793C83.8122 48.5395 85.1466 48.2197 86.6845 48.2197C87.8089 48.2197 88.8266 48.3941 89.7378 48.7431C90.6489 49.092 91.4276 49.5993 92.0737 50.2649C92.7199 50.924 93.2175 51.7253 93.5664 52.6687C93.9154 53.6121 94.0899 54.6751 94.0899 55.8576V57.0983H80.7913V54.1517H89.1659C89.1594 53.7252 89.0496 53.3504 88.8363 53.0273C88.6295 52.6978 88.3485 52.4425 87.9931 52.2616C87.6441 52.0742 87.2467 51.9805 86.8008 51.9805C86.3679 51.9805 85.9705 52.0742 85.6086 52.2616C85.2467 52.4425 84.956 52.6945 84.7363 53.0176C84.523 53.3407 84.4099 53.7188 84.397 54.1517V57.331C84.397 57.8091 84.4972 58.2356 84.6975 58.6104C84.8978 58.9852 85.1854 59.2792 85.5601 59.4925C85.9349 59.7057 86.3873 59.8123 86.9171 59.8123C87.2855 59.8123 87.6215 59.7606 87.9252 59.6572C88.2354 59.5539 88.5003 59.4052 88.72 59.2114C88.9397 59.0111 89.1013 58.772 89.2047 58.4941H94.0899C93.9218 59.528 93.5244 60.4262 92.8976 61.1887C92.2708 61.9448 91.4405 62.5328 90.4066 62.9528C89.3791 63.3664 88.1772 63.5732 86.8008 63.5732ZM101.624 54.9271V63.3018H96.2732V48.4135H101.352V51.2438H101.507C101.83 50.3004 102.399 49.5605 103.213 49.0242C104.034 48.4878 104.99 48.2197 106.082 48.2197C107.136 48.2197 108.05 48.462 108.825 48.9466C109.607 49.4248 110.212 50.0839 110.638 50.924C111.071 51.764 111.284 52.7236 111.278 53.8028V63.3018H105.927V54.9271C105.934 54.1905 105.746 53.6121 105.365 53.1921C104.99 52.7721 104.467 52.5621 103.795 52.5621C103.355 52.5621 102.971 52.659 102.641 52.8529C102.318 53.0403 102.07 53.3117 101.895 53.6671C101.721 54.016 101.63 54.436 101.624 54.9271ZM122.798 48.4135V52.2907H112.989V48.4135H122.798ZM114.888 44.8466H120.239V58.5135C120.239 58.7203 120.274 58.8947 120.345 59.0369C120.416 59.1726 120.526 59.276 120.675 59.3471C120.824 59.4117 121.014 59.444 121.247 59.444C121.408 59.444 121.596 59.4246 121.809 59.3858C122.029 59.3471 122.19 59.3148 122.294 59.2889L123.069 63.0497C122.83 63.1208 122.488 63.2081 122.042 63.3115C121.602 63.4148 121.079 63.4827 120.471 63.515C119.244 63.5796 118.213 63.4536 117.379 63.137C116.546 62.8139 115.919 62.3066 115.499 61.6152C115.079 60.9238 114.875 60.0579 114.888 59.0175V44.8466ZM134.567 63.5344C133.617 63.5344 132.777 63.3793 132.047 63.0691C131.323 62.7525 130.755 62.2743 130.341 61.6346C129.928 60.9949 129.721 60.1807 129.721 59.192C129.721 58.3778 129.86 57.6831 130.138 57.108C130.415 56.5265 130.803 56.0515 131.301 55.6832C131.798 55.3148 132.377 55.0338 133.036 54.8399C133.701 54.646 134.419 54.52 135.188 54.4619C136.021 54.3973 136.69 54.3197 137.194 54.2292C137.704 54.1323 138.073 53.9998 138.299 53.8318C138.525 53.6574 138.638 53.428 138.638 53.1436V53.1049C138.638 52.7172 138.49 52.4199 138.192 52.2131C137.895 52.0063 137.514 51.903 137.049 51.903C136.538 51.903 136.121 52.016 135.798 52.2422C135.482 52.4619 135.291 52.8012 135.226 53.26H130.302C130.367 52.3553 130.655 51.5217 131.165 50.7592C131.682 49.9902 132.435 49.3764 133.423 48.9176C134.412 48.4523 135.646 48.2197 137.126 48.2197C138.192 48.2197 139.149 48.3457 139.995 48.5977C140.842 48.8432 141.562 49.189 142.157 49.6348C142.751 50.0742 143.204 50.5912 143.514 51.1857C143.83 51.7737 143.989 52.4134 143.989 53.1049V63.3018H138.987V61.2081H138.871C138.574 61.7638 138.212 62.2129 137.785 62.5554C137.365 62.8979 136.884 63.1467 136.341 63.3018C135.805 63.4568 135.213 63.5344 134.567 63.5344ZM136.312 60.1613C136.719 60.1613 137.1 60.0773 137.456 59.9093C137.818 59.7412 138.112 59.4989 138.338 59.1823C138.564 58.8657 138.677 58.4812 138.677 58.0288V56.7882C138.535 56.8463 138.383 56.9012 138.221 56.9529C138.066 57.0046 137.898 57.0531 137.717 57.0983C137.543 57.1436 137.356 57.1856 137.155 57.2243C136.961 57.2631 136.758 57.2986 136.545 57.331C136.131 57.3956 135.792 57.5022 135.527 57.6508C135.268 57.793 135.074 57.9707 134.945 58.1839C134.822 58.3907 134.761 58.6233 134.761 58.8818C134.761 59.2954 134.906 59.612 135.197 59.8317C135.488 60.0514 135.86 60.1613 136.312 60.1613ZM151.905 63.3018V43.4508H157.256V51.0112H157.333C157.527 50.5072 157.812 50.0452 158.186 49.6251C158.561 49.1987 159.026 48.8594 159.582 48.6074C160.138 48.3489 160.784 48.2197 161.521 48.2197C162.503 48.2197 163.437 48.4814 164.322 49.0048C165.214 49.5282 165.937 50.3521 166.493 51.4765C167.055 52.6008 167.336 54.0612 167.336 55.8576C167.336 57.5765 167.068 59.0014 166.532 60.1322C166.002 61.263 165.291 62.1063 164.399 62.662C163.514 63.2178 162.542 63.4956 161.482 63.4956C160.784 63.4956 160.16 63.3825 159.611 63.1564C159.068 62.9237 158.603 62.6103 158.215 62.2162C157.834 61.8155 157.54 61.3632 157.333 60.8592H157.217V63.3018H151.905ZM157.139 55.8576C157.139 56.5814 157.233 57.2082 157.421 57.7381C157.614 58.2615 157.886 58.6686 158.235 58.9594C158.59 59.2437 159.013 59.3858 159.505 59.3858C159.996 59.3858 160.412 59.2469 160.755 58.9691C161.104 58.6847 161.369 58.2809 161.55 57.7574C161.737 57.2276 161.831 56.5943 161.831 55.8576C161.831 55.121 161.737 54.491 161.55 53.9675C161.369 53.4377 161.104 53.0338 160.755 52.7559C160.412 52.4716 159.996 52.3294 159.505 52.3294C159.013 52.3294 158.59 52.4716 158.235 52.7559C157.886 53.0338 157.614 53.4377 157.421 53.9675C157.233 54.491 157.139 55.121 157.139 55.8576ZM169.575 63.3018V48.4135H174.771V51.2438H174.926C175.197 50.197 175.627 49.4313 176.215 48.9466C176.81 48.462 177.504 48.2197 178.299 48.2197C178.532 48.2197 178.761 48.2391 178.987 48.2778C179.22 48.3101 179.443 48.3586 179.656 48.4232V52.9886C179.391 52.8981 179.065 52.8302 178.677 52.785C178.289 52.7398 177.956 52.7172 177.679 52.7172C177.155 52.7172 176.683 52.8367 176.263 53.0758C175.85 53.3084 175.524 53.638 175.284 54.0645C175.045 54.4845 174.926 54.9788 174.926 55.5475V63.3018H169.575ZM184.866 63.5344C183.916 63.5344 183.076 63.3793 182.346 63.0691C181.622 62.7525 181.053 62.2743 180.64 61.6346C180.226 60.9949 180.019 60.1807 180.019 59.192C180.019 58.3778 180.158 57.6831 180.436 57.108C180.714 56.5265 181.102 56.0515 181.599 55.6832C182.097 55.3148 182.675 55.0338 183.334 54.8399C184 54.646 184.717 54.52 185.486 54.4619C186.32 54.3973 186.989 54.3197 187.493 54.2292C188.003 54.1323 188.371 53.9998 188.598 53.8318C188.824 53.6574 188.937 53.428 188.937 53.1436V53.1049C188.937 52.7172 188.788 52.4199 188.491 52.2131C188.194 52.0063 187.813 51.903 187.347 51.903C186.837 51.903 186.42 52.016 186.097 52.2422C185.78 52.4619 185.59 52.8012 185.525 53.26H180.601C180.666 52.3553 180.953 51.5217 181.464 50.7592C181.981 49.9902 182.733 49.3764 183.722 48.9176C184.711 48.4523 185.945 48.2197 187.425 48.2197C188.491 48.2197 189.447 48.3457 190.294 48.5977C191.14 48.8432 191.861 49.189 192.455 49.6348C193.05 50.0742 193.502 50.5912 193.812 51.1857C194.129 51.7737 194.287 52.4134 194.287 53.1049V63.3018H189.286V61.2081H189.17C188.872 61.7638 188.51 62.2129 188.084 62.5554C187.664 62.8979 187.182 63.1467 186.64 63.3018C186.103 63.4568 185.512 63.5344 184.866 63.5344ZM186.611 60.1613C187.018 60.1613 187.399 60.0773 187.754 59.9093C188.116 59.7412 188.41 59.4989 188.636 59.1823C188.863 58.8657 188.976 58.4812 188.976 58.0288V56.7882C188.833 56.8463 188.682 56.9012 188.52 56.9529C188.365 57.0046 188.197 57.0531 188.016 57.0983C187.842 57.1436 187.654 57.1856 187.454 57.2243C187.26 57.2631 187.056 57.2986 186.843 57.331C186.43 57.3956 186.09 57.5022 185.825 57.6508C185.567 57.793 185.373 57.9707 185.244 58.1839C185.121 58.3907 185.06 58.6233 185.06 58.8818C185.06 59.2954 185.205 59.612 185.496 59.8317C185.787 60.0514 186.158 60.1613 186.611 60.1613ZM196.844 63.3018V48.4135H202.194V63.3018H196.844ZM199.519 46.8627C198.795 46.8627 198.175 46.6236 197.658 46.1454C197.141 45.6672 196.883 45.0921 196.883 44.4201C196.883 43.748 197.141 43.1729 197.658 42.6947C198.175 42.2166 198.795 41.9775 199.519 41.9775C200.249 41.9775 200.87 42.2166 201.38 42.6947C201.897 43.1729 202.156 43.748 202.156 44.4201C202.156 45.0921 201.897 45.6672 201.38 46.1454C200.87 46.6236 200.249 46.8627 199.519 46.8627ZM210.271 54.9271V63.3018H204.92V48.4135H209.999V51.2438H210.155C210.478 50.3004 211.046 49.5605 211.86 49.0242C212.681 48.4878 213.638 48.2197 214.73 48.2197C215.783 48.2197 216.697 48.462 217.473 48.9466C218.255 49.4248 218.859 50.0839 219.285 50.924C219.718 51.764 219.931 52.7236 219.925 53.8028V63.3018H214.574V54.9271C214.581 54.1905 214.394 53.6121 214.012 53.1921C213.638 52.7721 213.114 52.5621 212.442 52.5621C212.003 52.5621 211.618 52.659 211.289 52.8529C210.966 53.0403 210.717 53.3117 210.542 53.6671C210.368 54.016 210.277 54.436 210.271 54.9271Z" fill="black"/>
<defs>
<clipPath id="clip0_3_527">
<rect width="72.8901" height="72.8901" fill="white" transform="translate(0 0.907471)"/>
</clipPath>
</defs>
</svg>
